G04 #@! TF.GenerationSoftware,KiCad,Pcbnew,5.99.0+really5.1.10+dfsg1-1*
G04 #@! TF.CreationDate,2022-01-09T21:41:06-05:00*
G04 #@! TF.ProjectId,radio,72616469-6f2e-46b6-9963-61645f706362,rev?*
G04 #@! TF.SameCoordinates,Original*
G04 #@! TF.FileFunction,Soldermask,Bot*
G04 #@! TF.FilePolarity,Negative*
%FSLAX46Y46*%
G04 Gerber Fmt 4.6, Leading zero omitted, Abs format (unit mm)*
G04 Created by KiCad (PCBNEW 5.99.0+really5.1.10+dfsg1-1) date 2022-01-09 21:41:06*
%MOMM*%
%LPD*%
G01*
G04 APERTURE LIST*
%ADD10O,1.700000X1.700000*%
%ADD11R,1.700000X1.700000*%
%ADD12C,3.000000*%
%ADD13R,5.080000X2.413000*%
%ADD14R,2.413000X5.080000*%
%ADD15C,2.000000*%
G04 APERTURE END LIST*
D10*
G04 #@! TO.C,J12*
X191643000Y-114808000D03*
D11*
X194183000Y-114808000D03*
G04 #@! TD*
D12*
G04 #@! TO.C,H4*
X157480000Y-78740000D03*
G04 #@! TD*
G04 #@! TO.C,H3*
X129286000Y-108712000D03*
G04 #@! TD*
G04 #@! TO.C,H2*
X200660000Y-116840000D03*
G04 #@! TD*
G04 #@! TO.C,H1*
X200660000Y-88900000D03*
G04 #@! TD*
D13*
G04 #@! TO.C,J8*
X201485500Y-101727000D03*
X201485500Y-110490000D03*
G04 #@! TD*
D14*
G04 #@! TO.C,J5*
X143065500Y-117602000D03*
X151828500Y-117602000D03*
G04 #@! TD*
G04 #@! TO.C,J4*
X135699500Y-117602000D03*
X126936500Y-117602000D03*
G04 #@! TD*
G04 #@! TO.C,J3*
X156083000Y-117602000D03*
X164846000Y-117602000D03*
G04 #@! TD*
G04 #@! TO.C,J2*
X168859200Y-117602000D03*
X177622200Y-117602000D03*
G04 #@! TD*
D15*
G04 #@! TO.C,T1*
X179471840Y-99758500D03*
X179471840Y-88758500D03*
X173471840Y-99758500D03*
X173471840Y-88758500D03*
G04 #@! TD*
D10*
G04 #@! TO.C,JP11*
X132994400Y-101193600D03*
X135534400Y-101193600D03*
D11*
X138074400Y-101193600D03*
G04 #@! TD*
D10*
G04 #@! TO.C,JP4*
X150876000Y-105219500D03*
X148336000Y-105219500D03*
D11*
X145796000Y-105219500D03*
G04 #@! TD*
D10*
G04 #@! TO.C,JP2*
X182372000Y-109982000D03*
X184912000Y-109982000D03*
D11*
X187452000Y-109982000D03*
G04 #@! TD*
D10*
G04 #@! TO.C,JP1*
X196342000Y-109982000D03*
X193802000Y-109982000D03*
D11*
X191262000Y-109982000D03*
G04 #@! TD*
D10*
G04 #@! TO.C,J11*
X155194000Y-88138000D03*
D11*
X155194000Y-85598000D03*
G04 #@! TD*
D10*
G04 #@! TO.C,J10*
X133985000Y-88519000D03*
D11*
X133985000Y-85979000D03*
G04 #@! TD*
D10*
G04 #@! TO.C,J9*
X147574000Y-80772000D03*
X145034000Y-80772000D03*
X142494000Y-80772000D03*
X139954000Y-80772000D03*
X137414000Y-80772000D03*
D11*
X134874000Y-80772000D03*
G04 #@! TD*
D10*
G04 #@! TO.C,J7*
X125095000Y-101473000D03*
D11*
X125095000Y-98933000D03*
G04 #@! TD*
D10*
G04 #@! TO.C,J6*
X130429000Y-97599500D03*
D11*
X130429000Y-95059500D03*
G04 #@! TD*
D10*
G04 #@! TO.C,J1*
X125031500Y-95186500D03*
D11*
X125031500Y-92646500D03*
G04 #@! TD*
M02*
