M48
INCH,TZ
T1C0.0118
T2C0.0157
T3C0.0200
T4C0.0394
%
G90
G05
T1
X49250Y-45350
X49250Y-45600
X49250Y-45850
X49250Y-46100
X49250Y-46350
X49250Y-46600
X49250Y-46850
X49250Y-47100
X49786Y-36583
X50054Y-39917
X50144Y-35122
X50569Y-36175
X50700Y-45350
X50700Y-45600
X50700Y-45850
X50700Y-46100
X50700Y-46350
X50700Y-46600
X50700Y-46850
X50700Y-47100
X52000Y-37400
X52040Y-36920
X52073Y-36175
X52080Y-36620
X52180Y-35501
X52180Y-35800
X52200Y-37200
X52320Y-36880
X52360Y-36580
X52378Y-36175
X52400Y-34400
X52400Y-37400
X52480Y-35660
X52600Y-37200
X52725Y-36220
X52740Y-35780
X52800Y-37400
X53000Y-35680
X53000Y-37200
X53200Y-37400
X53400Y-37200
X53543Y-32972
X53600Y-37400
X53602Y-33209
X53720Y-32815
X53780Y-33051
X53839Y-33287
X53957Y-32894
X54016Y-33130
X54240Y-33213
X54450Y-35672
X54647Y-35980
X54650Y-36500
X54654Y-36240
X54860Y-36360
X54880Y-36120
X54900Y-36650
X55600Y-35600
X55600Y-35850
X55700Y-36500
X55799Y-36048
X55850Y-35450
X55850Y-35700
X55950Y-36600
X56000Y-36360
X56043Y-35957
X56100Y-35450
X56100Y-35700
X56250Y-36250
X56268Y-35188
X56910Y-37774
X57440Y-35300
X57666Y-34346
X57700Y-33840
X57884Y-37077
X58020Y-36480
X58080Y-33840
X58080Y-36720
X58080Y-37500
X58140Y-37760
X58400Y-33820
X58540Y-36560
X58600Y-34460
X58640Y-36780
X58660Y-37040
X58800Y-36580
X58820Y-34140
X58840Y-34780
X58860Y-34480
X59050Y-45350
X59050Y-45600
X59050Y-45850
X59050Y-46100
X59050Y-46350
X59050Y-46600
X59050Y-46850
X59050Y-47100
X59080Y-36720
X59177Y-34974
X59232Y-38465
X59420Y-36380
X59422Y-37717
X60020Y-38700
X60280Y-36740
X60340Y-38063
X60378Y-39053
X60500Y-45350
X60500Y-45600
X60500Y-45850
X60500Y-46100
X60500Y-46350
X60500Y-46600
X60500Y-46850
X60500Y-47100
X60920Y-37020
X61071Y-37959
X61388Y-40850
X61423Y-37919
X61440Y-36660
X61472Y-38270
X61535Y-38874
X61580Y-37000
X61880Y-37920
X62120Y-37900
X62200Y-45300
X62200Y-45550
X62200Y-45800
X62200Y-46050
X62200Y-46300
X62200Y-46550
X62200Y-46800
X62200Y-47050
X62300Y-36500
X62346Y-38895
X62740Y-36160
X62792Y-38652
X62880Y-35960
X62941Y-40910
X63020Y-36180
X63120Y-36460
X63300Y-36220
X63380Y-36600
X63550Y-38700
X63600Y-36240
X63600Y-39800
X63640Y-36660
X63750Y-39300
X63780Y-36440
X63800Y-38700
X63800Y-39600
X63900Y-36200
X63920Y-35940
X63950Y-38950
X64050Y-38700
X64050Y-39500
X64060Y-36480
X64150Y-40150
X64150Y-40400
X64150Y-40650
X64150Y-40900
X64150Y-41150
X64150Y-41400
X64150Y-41650
X64207Y-35560
X64220Y-36800
X64400Y-40250
X64400Y-40500
X64400Y-40750
X64400Y-41000
X64400Y-41250
X64400Y-41500
X64400Y-45150
X64650Y-45150
X64700Y-40400
X64900Y-45150
X65150Y-45150
X65400Y-40550
X65400Y-45150
X65600Y-40700
X66450Y-45150
X66700Y-40900
X66700Y-41200
X66700Y-45150
X66950Y-45150
X67776Y-31870
X68012Y-32303
X68051Y-31870
X68327Y-31870
X68327Y-32126
X68602Y-31870
X68602Y-32126
X68799Y-32421
X68878Y-31870
X68878Y-32126
X69094Y-32421
X69154Y-31870
X69154Y-32126
X69250Y-45200
X69250Y-45450
X69250Y-45750
X69250Y-46050
X69250Y-46350
X69250Y-46650
X69250Y-46950
X69250Y-47250
X70975Y-44785
X71000Y-38750
X71050Y-39800
X71300Y-38850
X71300Y-39650
X71300Y-45078
X71400Y-39100
X71400Y-39400
X72250Y-42400
X72375Y-41700
X72958Y-40483
X72962Y-40725
X72962Y-41265
X72962Y-41515
X72975Y-40975
X73099Y-39190
X73220Y-40480
X73224Y-40741
X73224Y-41265
X73225Y-41000
X73225Y-41525
X73486Y-40480
X73486Y-40741
X73486Y-41265
X73486Y-41525
X73500Y-41000
X73600Y-39560
X73748Y-40480
X73750Y-41000
X73750Y-41265
X73750Y-41525
X73759Y-40741
X73812Y-39838
X74000Y-41250
X74000Y-41500
X74009Y-40491
X74009Y-40741
X74009Y-41003
X74225Y-39950
X74325Y-40175
X74422Y-39328
X74465Y-39015
X74800Y-39200
X74900Y-40400
X74900Y-40820
X74922Y-42000
X75197Y-42677
X75300Y-38880
X75300Y-39500
X75433Y-42638
X75689Y-42618
X75984Y-42618
X76280Y-42618
X76516Y-40728
X76575Y-42618
X76772Y-42421
X76850Y-42677
X77008Y-42480
T2
X50800Y-38133
X50810Y-38929
X51701Y-31267
X51787Y-32471
X52014Y-38162
X52034Y-38829
X52800Y-41900
X52800Y-42700
X52800Y-43400
X53000Y-44950
X53200Y-38800
X53300Y-41900
X53300Y-43400
X53350Y-44950
X53418Y-34754
X53600Y-38400
X53700Y-44950
X54000Y-38000
X54300Y-45400
X54300Y-46000
X54321Y-37482
X54450Y-45700
X54525Y-34999
X54537Y-34621
X54650Y-45400
X54650Y-46000
X54800Y-38600
X54800Y-45700
X55000Y-37200
X55000Y-45400
X55000Y-46000
X55027Y-42227
X55150Y-45700
X55350Y-45400
X55350Y-46000
X55400Y-38200
X55527Y-41727
X55600Y-37200
X55728Y-40127
X55800Y-38400
X55848Y-38742
X55950Y-44950
X56003Y-39064
X56300Y-44950
X56370Y-39064
X56650Y-44950
X57264Y-37461
X57343Y-40343
X57416Y-37774
X58340Y-36820
X58360Y-37581
X58380Y-37160
X58410Y-34820
X58433Y-34195
X58680Y-37720
X58791Y-40235
X59031Y-37573
X59113Y-40479
X59141Y-39910
X59430Y-40227
X59460Y-36673
X59500Y-40650
X59800Y-37543
X59800Y-37877
X59850Y-40750
X59900Y-40100
X59950Y-41100
X60095Y-37681
X60100Y-40450
X60200Y-40800
X60498Y-40312
X60571Y-37579
X60824Y-36617
X60861Y-40323
X61240Y-36901
X61272Y-39114
X61275Y-40150
X61720Y-36641
X61772Y-36253
X63917Y-34528
X65600Y-43300
X65700Y-45450
X65700Y-45800
X65700Y-46150
X65700Y-46500
X65700Y-46850
X65700Y-47200
X66025Y-42975
X66166Y-33109
X66354Y-39431
X66900Y-43100
X67820Y-40320
X67820Y-40700
X67820Y-41080
X67840Y-41460
X67860Y-39860
X68140Y-40500
X68160Y-40880
X68160Y-41660
X68180Y-41240
X68240Y-40140
X68600Y-40240
X68780Y-39860
X69120Y-40140
X69950Y-46250
X70620Y-46240
X70620Y-46600
X70620Y-46940
X70640Y-45420
X70640Y-45900
X70880Y-45640
X70900Y-47200
X70940Y-45280
X71220Y-45480
X71675Y-41625
X72087Y-37835
X72106Y-38189
X72382Y-38543
X72421Y-37854
X72461Y-38209
X72717Y-38543
X72776Y-37835
X72795Y-38189
X73150Y-38701
X73419Y-44787
X74193Y-38661
X74400Y-42000
X74525Y-39975
X75807Y-39646
X76201Y-40079
X76229Y-40700
X76280Y-41516
X76417Y-41201
X76772Y-40551
X78150Y-39700
X78150Y-40050
X78150Y-40400
X78150Y-43200
X78150Y-43550
X78150Y-43900
X78250Y-42850
X78260Y-44240
X78300Y-39400
X78300Y-40700
X78600Y-42850
X78600Y-44240
X78650Y-39400
X78650Y-40700
X78940Y-44240
X78950Y-42850
X79000Y-39400
X79000Y-40700
X79280Y-44240
X79300Y-42850
X79300Y-43500
X79350Y-39400
X79350Y-40050
X79350Y-40700
X79620Y-44240
X79650Y-42850
X79700Y-39400
X79700Y-40700
X79960Y-44220
X80000Y-42850
X80050Y-39400
X80050Y-40700
T3
X64900Y-36375
X64900Y-38025
X65400Y-36375
X65900Y-36375
X65900Y-38025
X66400Y-36375
X66900Y-34725
X66900Y-36375
T4
X49225Y-36475
X49225Y-37475
X49250Y-38950
X49250Y-39950
X51350Y-37425
X51350Y-38425
X52360Y-39840
X52750Y-33850
X52750Y-34850
X53100Y-31800
X53360Y-39840
X54100Y-31800
X54360Y-39840
X55100Y-31800
X56100Y-31800
X57100Y-31800
X57400Y-41425
X58100Y-31800
X58400Y-41425
X59400Y-41425
X61100Y-33700
X61100Y-34700
X68296Y-34944
X68296Y-39275
X70658Y-34944
X70658Y-39275
X71800Y-43300
X72800Y-43300
X73800Y-43300
X75300Y-43300
X75450Y-45200
X76300Y-43300
X76450Y-45200
X77300Y-43300
T0
M30
